<?xml version="1.0" encoding="UTF-8" standalone="no"?>
<!-- Created with Inkscape (http://www.inkscape.org/) -->

<svg
   width="210mm"
   height="297mm"
   viewBox="0 0 210 297"
   version="1.1"
   id="svg5"
   inkscape:version="1.2.2 (b0a8486541, 2022-12-01)"
   sodipodi:docname="scissors.svg"
   xmlns:inkscape="http://www.inkscape.org/namespaces/inkscape"
   xmlns:sodipodi="http://sodipodi.sourceforge.net/DTD/sodipodi-0.dtd"
   xmlns="http://www.w3.org/2000/svg"
   xmlns:svg="http://www.w3.org/2000/svg">
  <sodipodi:namedview
     id="namedview7"
     pagecolor="#ffffff"
     bordercolor="#111111"
     borderopacity="1"
     inkscape:showpageshadow="0"
     inkscape:pageopacity="0"
     inkscape:pagecheckerboard="1"
     inkscape:deskcolor="#d1d1d1"
     inkscape:document-units="mm"
     showgrid="false"
     inkscape:zoom="3.3638608"
     inkscape:cx="363.86761"
     inkscape:cy="188.91983"
     inkscape:window-width="2494"
     inkscape:window-height="1531"
     inkscape:window-x="0"
     inkscape:window-y="0"
     inkscape:window-maximized="1"
     inkscape:current-layer="layer1" />
  <defs
     id="defs2" />
  <g
     inkscape:label="Layer 1"
     inkscape:groupmode="layer"
     id="layer1">
    <path
       style="fill:none;stroke:#ff0000;stroke-width:0.264583"
       d="m 108.80367,69.080914 c 4.86854,-9.195953 27.54932,-5.453184 32.81964,-14.208261 5.28174,-5.020739 6.32879,-15.562173 -1.52716,-18.698563 -6.26935,-2.121981 -14.00296,1.431009 -17.44403,6.782028 -3.14664,6.242292 4.77879,14.217533 10.84177,9.97953 6.37337,-3.536526 10.23341,-12.954422 4.47145,-18.785571 -5.96273,-5.986392 -13.38707,0.75116 -17.66584,5.309756 -11.22284,12.28646 -16.68054,30.053251 -32.253918,38.082502 -8.831495,5.198153 -18.707102,8.245389 -27.708051,13.107924 11.050021,-0.790551 20.381184,-7.459696 30.159584,-11.966598 4.501074,-2.639149 8.826777,-5.695202 12.322515,-9.602686"
       id="path340"
       sodipodi:nodetypes="ccccccccccc" />
  </g>
</svg>
