<?xml version="1.0" encoding="UTF-8" standalone="no"?>
<!-- Created with Inkscape (http://www.inkscape.org/) -->

<svg
   width="210mm"
   height="297mm"
   viewBox="0 0 210 297"
   version="1.1"
   id="svg561"
   xml:space="preserve"
   inkscape:version="1.2.2 (b0a8486541, 2022-12-01)"
   sodipodi:docname="woman_head.svg"
   xmlns:inkscape="http://www.inkscape.org/namespaces/inkscape"
   xmlns:sodipodi="http://sodipodi.sourceforge.net/DTD/sodipodi-0.dtd"
   xmlns="http://www.w3.org/2000/svg"
   xmlns:svg="http://www.w3.org/2000/svg"><sodipodi:namedview
     id="namedview563"
     pagecolor="#ffffff"
     bordercolor="#111111"
     borderopacity="1"
     inkscape:showpageshadow="0"
     inkscape:pageopacity="0"
     inkscape:pagecheckerboard="1"
     inkscape:deskcolor="#d1d1d1"
     inkscape:document-units="mm"
     showgrid="false"
     inkscape:zoom="4.7572176"
     inkscape:cx="389.72361"
     inkscape:cy="195.59753"
     inkscape:window-width="2494"
     inkscape:window-height="1531"
     inkscape:window-x="0"
     inkscape:window-y="0"
     inkscape:window-maximized="1"
     inkscape:current-layer="layer1" /><defs
     id="defs558" /><g
     inkscape:label="Layer 1"
     inkscape:groupmode="layer"
     id="layer1"><path
       id="path583"
       style="fill:none;stroke:#ff0000;stroke-width:0.264583"
       d="m 80.782178,81.036728 c 0.06577,-0.494965 -0.05011,-1.054154 0.37289,-1.43288 0.312046,-0.444958 0.532011,-1.004135 0.813733,-1.509762 0.43082,-0.520203 0.627632,-1.200138 1.052632,-1.728753 0.496936,-0.507383 1.020528,-0.94509 1.668746,-1.209761 0.691401,-0.358916 1.231141,-0.820837 2.046585,-0.9696 0.872708,-0.317779 1.795941,-0.300088 2.723851,-0.29759 0.649651,-0.125625 1.335263,-0.25711 1.956658,-0.43035 0.343345,-0.369081 0.810885,-0.518295 1.130919,-0.916079 0.533275,-0.303408 1.063329,-0.560629 1.671339,-0.629856 0.652233,-0.121599 1.81715,-0.898816 2.104539,0.09433 0.268581,0.752399 -0.184413,1.766922 -1.078204,1.427849 -0.589767,-0.09388 -0.977366,-0.541395 -1.081107,-1.120204 -0.276021,-0.56201 -0.08858,-1.224779 -0.27506,-1.808058 -0.245913,-1.112261 -0.179016,-2.279232 -0.21659,-3.440911 -0.204728,-0.585613 -0.06232,-1.614362 -0.890013,-1.691612 -0.578409,-0.275164 -1.344233,-0.215704 -1.913382,0.07804 -0.593824,0.136768 -1.18505,0.216565 -1.745915,0.41247 -0.673699,0.114584 -1.323868,0.187685 -2.051196,0.05399 -0.625829,-0.147714 -1.415493,-0.328316 -1.814797,-0.821573 -0.212682,-0.794391 -0.04896,-1.645751 -0.157432,-2.476891 -0.27341,-0.448509 -0.698887,-0.969871 -0.43627,-1.51732 0.334373,-0.194863 0.756586,-0.270963 1.095154,-0.498622 0.677903,-0.0039 1.390658,-0.105299 2.055192,0.02742 0.412358,0.07755 0.363715,0.679449 -0.136503,0.52451 -0.66695,0.182882 -1.328023,-0.156963 -1.994303,-0.19561 -0.445627,-0.174651 -0.892186,-0.36924 -1.322107,-0.57596 -0.118844,-0.380239 -0.477907,-0.791396 -0.11083,-1.13711 0.158329,-0.364829 0.44897,-0.66828 0.631612,-1.004116 0.323269,-0.640933 -0.654404,-0.695556 -0.621284,-1.26917 0.311254,-0.38018 1.210785,-0.3688 1.39664,0.152164 -0.02826,0.420656 -0.768032,0.451311 -1.101084,0.301802 -0.55358,-0.182199 -1.331249,-0.291203 -1.441183,-1.005582 -0.228198,-0.330065 0.06675,-0.911447 0.428578,-1.125277 0.567325,-0.471375 1.210269,-0.858397 1.642385,-1.47246 0.544256,-0.482908 0.944194,-1.186905 0.776362,-1.943882 0.08847,-0.50826 -0.09591,-0.770286 -0.495472,-1.069592 -0.18637,-0.139605 -0.312846,-0.37851 -0.256949,-0.594787 0.726574,-2.811253 0.972864,-5.53791 2.741828,-6.237524 1.528836,-0.793247 6.567746,1.063281 4.478862,2.260088 -1.569964,0.899496 -2.770723,-1.661472 -4.779465,-1.959194 -2.539123,-0.376331 -1.087049,-4.669568 1.175636,-4.764271 2.088393,-0.184033 4.556722,-0.884994 6.249361,0.800805 1.496237,1.441209 3.369909,3.600192 5.695066,2.698073 2.04201,-0.231723 4.50877,-1.830181 6.23834,0.07463 1.63518,1.458548 3.12798,3.774495 2.29659,6.028334 -2.64484,0.930409 -3.76287,-2.902342 -6.30419,-2.898471 -2.68872,-0.967424 -5.949379,0.938052 -8.297157,-1.155517 -1.508831,-1.669264 -3.812061,-1.571919 -5.654018,-2.570032 -1.967613,-1.066202 1.423475,-2.392563 2.64673,-2.86644 3.247844,-1.347748 6.828225,-0.95821 10.217255,-0.520138 2.79544,0.389577 5.57881,1.610935 7.18195,4.041688 1.67012,2.095264 3.06823,4.540095 2.9846,7.305369 -0.10333,1.885535 -0.94179,6.918239 -3.02019,5.36668 -1.91086,-1.426488 -1.3909,-4.782824 -3.28501,-6.477532 -2.23108,-1.733743 -5.21401,-1.99621 -7.905169,-1.952362 -1.509334,0.02459 -5.124074,-1.978272 -4.472862,0.935015 1.046959,2.123277 3.947827,3.169236 4.012291,5.771431 1.23251,1.384136 2.219021,-1.683798 1.496329,-2.65248 0.843908,-2.567459 4.256591,-0.988502 6.220981,-0.850103 2.35046,0.64203 4.10419,2.458042 5.86016,4.035961 1.16851,1.592748 -0.93925,5.034187 -2.10223,3.859192 -1.36147,-1.375532 2.57123,-1.517816 4.24479,-1.008408 4.30887,1.311553 5.74613,11.229525 3.21585,9.637961 -0.84798,-1.256102 -0.79241,-5.015608 1.44127,-3.249292 1.28383,1.984623 2.62261,4.184157 3.10722,6.461391 0.62758,2.168979 0.003,5.416061 -2.68777,5.685381 -2.05604,0.429539 -4.2987,-0.253842 -6.10619,-1.272508 -1.76898,-1.140059 -3.42962,-2.541639 -4.12566,-4.589243 -1.05386,-2.087813 -1.84614,-4.804279 -0.40162,-6.906645 0.62683,-1.21267 1.55484,-5.096716 -0.30695,-4.381767 -1.80628,0.693631 -6.61334,3.589857 -5.91041,0.921177 0.43553,-1.653504 1.28239,-2.556213 2.81546,-3.686405 1.4498,-1.068808 -0.54309,3.41291 -0.25777,5.037767 -0.37829,1.877138 -0.81859,4.162755 0.61954,5.723227 1.32718,1.611971 1.97115,4.182533 4.4188,4.398126 2.96131,0.665159 5.93324,1.381455 8.61971,2.851023 2.03649,0.845879 4.49081,0.972145 6.15574,2.56923 0.87518,1.130725 1.42048,2.790571 1.66597,4.224367"
       sodipodi:nodetypes="ccccccccccccccccccccccccccccccccccccsscsscccccccsccccscscccccsscccccccssscccccc" /></g></svg>
