<?xml version="1.0" encoding="UTF-8" standalone="no"?>
<!-- Created with Inkscape (http://www.inkscape.org/) -->

<svg
   width="210mm"
   height="297mm"
   viewBox="0 0 210 297"
   version="1.1"
   id="svg648"
   xml:space="preserve"
   inkscape:version="1.2.2 (b0a8486541, 2022-12-01)"
   sodipodi:docname="word_gordian.svg"
   xmlns:inkscape="http://www.inkscape.org/namespaces/inkscape"
   xmlns:sodipodi="http://sodipodi.sourceforge.net/DTD/sodipodi-0.dtd"
   xmlns="http://www.w3.org/2000/svg"
   xmlns:svg="http://www.w3.org/2000/svg"><sodipodi:namedview
     id="namedview650"
     pagecolor="#ffffff"
     bordercolor="#111111"
     borderopacity="1"
     inkscape:showpageshadow="0"
     inkscape:pageopacity="0"
     inkscape:pagecheckerboard="1"
     inkscape:deskcolor="#d1d1d1"
     inkscape:document-units="mm"
     showgrid="false"
     inkscape:zoom="1.6819304"
     inkscape:cx="406.08101"
     inkscape:cy="16.944815"
     inkscape:window-width="2494"
     inkscape:window-height="1531"
     inkscape:window-x="0"
     inkscape:window-y="0"
     inkscape:window-maximized="1"
     inkscape:current-layer="layer1" /><defs
     id="defs645" /><g
     inkscape:label="Layer 1"
     inkscape:groupmode="layer"
     id="layer1"><path
       style="fill:none;stroke:#ff0000;stroke-width:0.264583"
       d="m 22.172162,76.731809 c -0.470203,-1.668177 0.403629,-7.817106 1.150151,-10.972239 1.293889,-4.631371 2.752192,-8.074873 5.934532,-11.99551 3.078183,-3.663823 6.693185,-6.807388 11.249023,-8.189206 4.557859,-1.961435 9.457277,-2.099811 14.355333,-1.941822 5.388245,-0.231354 8.015727,6.753939 6.322434,11.117282 -2.552106,3.039181 -6.20041,4.000703 -10.071818,4.750143 -4.089736,1.632081 -10.944531,2.057446 -11.366166,-3.818088 -1.220793,-5.150226 3.393288,-8.28416 7.447756,-9.639546 3.804084,-2.68364 9.013279,-2.350491 12.77893,-0.157292 3.488115,2.081233 2.126046,6.832033 2.411966,10.337049 0.103663,5.493573 -1.005556,10.889499 -3.331387,15.906902 -2.065879,3.195204 -3.3158,5.603701 -5.979724,8.587216 -5.516857,3.800124 -7.284925,-3.86739 -4.211267,-7.363203 2.218941,-3.405802 4.091878,-7.073328 6.823107,-10.180997 2.931552,-4.047139 6.29886,-7.700947 9.269559,-11.762747 2.420477,-3.575335 6.840514,-3.277153 10.006687,-5.315647 3.447915,-1.9065 10.184302,-1.440602 10.074069,3.698981 0.758412,5.212304 -5.992336,7.115819 -9.684842,8.733637 -5.802286,2.362501 -13.540521,-4.740277 -7.23785,-9.338075 2.081009,-3.418642 6.613441,-3.450713 9.696308,-4.000076 4.252685,-0.928089 9.101618,1.023411 12.964901,-1.251823 3.05323,-3.612454 5.255281,-0.675717 4.060525,3.136131 -0.582292,2.872683 -1.761931,4.96612 -2.753954,7.789181 -0.826825,4.273483 -3.837319,4.723972 -2.110563,-0.228681 1.477422,-3.171833 2.300744,-7.560595 5.794771,-9.290556 2.116712,-0.99424 4.396427,-2.407431 7.026897,-2.499302 4.66612,-0.882899 9.86254,-1.413434 14.57997,-0.143822 4.52441,0.473989 0.17961,0.65892 -1.92278,0.531405 -4.14174,-0.450426 -7.98397,1.725561 -10.89482,4.372472 -3.47775,2.507034 -2.64694,8.780696 1.56815,9.769518 3.89029,2.457246 9.11794,0.187351 11.21469,-3.669435 1.51271,-3.100875 3.49109,-5.932577 4.25124,-9.361077 0.61353,-4.145623 1.21447,-8.322397 1.96253,-12.335701 0.74059,-2.429987 0.86986,-5.019015 0.82876,-7.642188 -1.62283,3.168507 -2.10989,6.733329 -3.042,10.122773 -0.93637,4.322852 -1.20091,8.964286 -1.45908,13.439386 -0.23914,3.51335 -0.0349,9.082932 4.72964,8.321294 3.38201,-0.208585 5.42564,-2.532857 6.32559,-5.779413 0.63399,-2.635802 2.1478,-6.947434 1.99918,-8.432952 -0.33974,3.049999 -2.14053,5.691407 -2.33636,8.634128 -1.7228,4.630724 4.9796,7.835124 8.18747,4.995558 4.20813,-2.698056 3.96822,-7.922885 5.89661,-11.976694 3.34716,-3.029337 9.05016,-4.120167 12.92814,-1.943614 2.52853,2.669082 1.29486,7.273625 -0.59316,9.908479 -2.66532,3.169024 -6.83544,4.474791 -10.84319,4.03225 -3.19284,-1.758657 -3.85782,-6.567102 -2.4515,-9.685655 1.1681,-4.332301 6.89637,-3.840335 10.34567,-5.328394 5.0312,-3.157426 6.53386,4.016951 4.95863,6.811371 -1.8365,4.054466 0.0378,10.845295 4.68966,6.016656 1.35352,-2.81499 1.78134,-5.888771 3.43393,-8.686717 0.53576,-5.164242 7.7384,-4.928643 5.12982,1.096269 -0.84512,3.30042 -0.41031,6.990071 -2.39979,9.963308 -2.40024,-1.84215 1.88918,-6.057956 1.72153,-8.960027 0.2672,-3.964147 2.84152,-8.6715 7.5514,-6.617012 4.36715,0.852258 5.00669,6.169982 4.57577,9.87801 0.008,1.837907 -1.5588,4.495249 -0.57829,6.436825 1.14961,4.400751 -2.45391,8.389393 -5.94844,10.138416 -3.55895,1.38515 -7.09369,4.46942 -6.06923,8.571573 0.30123,1.651242 0.84096,1.604826 2.56491,1.411286"
       id="path668" /></g></svg>
